<?xml version="1.0" encoding="utf-8"?>
<!-- Generator: Adobe Illustrator 18.0.0, SVG Export Plug-In . SVG Version: 6.00 Build 0)  -->
<!DOCTYPE svg PUBLIC "-//W3C//DTD SVG 1.1//EN" "http://www.w3.org/Graphics/SVG/1.1/DTD/svg11.dtd">
<svg version="1.1" id="OBJECTS" xmlns="http://www.w3.org/2000/svg" xmlns:xlink="http://www.w3.org/1999/xlink" x="0px" y="0px"
	 viewBox="0 0 640 480" enable-background="new 0 0 640 480" xml:space="preserve">
<g>
	<g>
		<g>
			<g>
				<g>
					<defs>
						<polyline id="SVGID_1_" points="559.5,17 559.5,480 71,480 71,17 						"/>
					</defs>
					<clipPath id="SVGID_2_">
						<use xlink:href="#SVGID_1_"  overflow="visible"/>
					</clipPath>
					<g clip-path="url(#SVGID_2_)">
						<path fill="#CD7A23" d="M287.7,194.9c0,2.5-2.2,3.9-4.8,3.9h-0.1c-2.7,0-4.8-1.3-4.8-3.9v-15.1c0-2.5,2.2-4.6,4.8-4.6h0.1
							c2.7,0,4.8,2,4.8,4.6V194.9z"/>
						<path fill="#CD7A23" d="M357,194.9c0,2.5-2.2,3.9-4.8,3.9h-0.1c-2.7,0-4.8-1.3-4.8-3.9v-15.1c0-2.5,2.2-4.6,4.8-4.6h0.1
							c2.7,0,4.8,2,4.8,4.6V194.9z"/>
					</g>
				</g>
			</g>
		</g>
	</g>
	<g>
		<g>
			<g>
				<g>
					<defs>
						<polyline id="SVGID_3_" points="559.5,17 559.5,480 71,480 71,17 						"/>
					</defs>
					<clipPath id="SVGID_4_">
						<use xlink:href="#SVGID_3_"  overflow="visible"/>
					</clipPath>
					<path clip-path="url(#SVGID_4_)" fill="#A17043" d="M545.5,421.9c0,14.6-10.8,26.1-24,26.1H117.4
						c-13.2,0.1-24.3-11.4-24.3-26.1V128.3c0-14.6,11.1-26.7,24.3-26.7h404.1c13.2,0,24,11.9,24,26.7V421.9L545.5,421.9z"/>
				</g>
			</g>
		</g>
	</g>
	<g>
		<g>
			<g>
				<g>
					<defs>
						<polyline id="SVGID_5_" points="559.5,17 559.5,480 71,480 71,17 						"/>
					</defs>
					<clipPath id="SVGID_6_">
						<use xlink:href="#SVGID_5_"  overflow="visible"/>
					</clipPath>
					<path clip-path="url(#SVGID_6_)" fill="#D4A157" d="M526.2,151.7c-7.8-1.1-15.1-5.8-19.9-13.1c-3.1-4.8-5-10.2-5.8-16
						c0-2.8-0.1-5.8-0.1-8.8l0,0L140,113.3c0.6,5.6-0.1,11.2-1.9,16.6c-1.4,2.7-2.6,5.3-3.9,7.9c-4.7,7.2-11.7,12-19.4,13.3
						c-1.7,0.3-3.6,0.4-5.2,0.3l-0.3,244.2c1.8-0.1,3.8-0.3,5.7-0.3c16,0,27.5,21.1,25.7,38l0,0l361.6,0.5c-0.2-2.3-0.2-4.5,0-6.6
						c0.9-9.1,5-17.5,11.3-23.1c5.6-5.1,11.4-6.4,18-6.7l0.3-245.4C530,152.1,528.1,152.1,526.2,151.7z"/>
				</g>
			</g>
		</g>
	</g>
	<g>
		<g>
			<g>
				<g>
					<defs>
						<polyline id="SVGID_7_" points="559.5,17 559.5,480 71,480 71,17 						"/>
					</defs>
					<clipPath id="SVGID_8_">
						<use xlink:href="#SVGID_7_"  overflow="visible"/>
					</clipPath>
					<g clip-path="url(#SVGID_8_)">
						<path fill="#6A522F" d="M127.3,130.7c-0.1,3.9-2.9,6.9-6.3,6.9c-3.4,0-6.1-3.1-6.1-7c0.1-3.9,2.9-6.9,6.3-6.9
							C124.6,123.8,127.3,126.9,127.3,130.7z"/>
						<path fill="#6A522F" d="M123.4,420.4c-0.1,3.8-2.9,6.9-6.3,6.9c-3.4,0-6.1-3.1-6.1-7c0.1-3.9,2.9-6.9,6.3-6.9
							S123.5,416.6,123.4,420.4z"/>
						<path fill="#6A522F" d="M529.7,127.1c-0.1,4.6-3,8.5-6.6,8.5c-3.6,0-6.5-3.9-6.5-8.5c0.1-4.6,3-8.5,6.6-8.5
							C526.9,118.4,529.8,122.3,529.7,127.1z"/>
						<path fill="#6A522F" d="M527.8,422.5c-0.1,3.8-2.9,6.9-6.3,6.9c-3.4,0-6.1-3.1-6.1-7c0.1-3.8,2.9-6.9,6.3-6.9
							C525,415.5,527.9,418.6,527.8,422.5z"/>
					</g>
				</g>
			</g>
		</g>
	</g>
	<g>
		<g>
			<g>
				<g>
					<defs>
						<polyline id="SVGID_9_" points="559.5,17 559.5,480 71,480 71,17 						"/>
					</defs>
					<clipPath id="SVGID_10_">
						<use xlink:href="#SVGID_9_"  overflow="visible"/>
					</clipPath>
					<g clip-path="url(#SVGID_10_)">
						<path fill="#523C26" d="M348.7,99.9c-1.7,1.6-4.5,0.7-6.3-1.5c-19.2-19.3-41.8-19.3-60.9,0c-1.8,2.3-4.6,3.1-6.3,1.5l0,0
							c-1.7-1.6-1.6-5.3,0.6-8c22-23,50.2-23,72.3,0C350.2,94.5,350.5,98.3,348.7,99.9L348.7,99.9z"/>
					</g>
				</g>
			</g>
		</g>
	</g>
	<g>
		<g>
			<g>
				<g>
					<defs>
						<polyline id="SVGID_11_" points="559.5,17 559.5,480 71,480 71,17 						"/>
					</defs>
					<clipPath id="SVGID_12_">
						<use xlink:href="#SVGID_11_"  overflow="visible"/>
					</clipPath>
					<g clip-path="url(#SVGID_12_)">
						<g>
							<g>
								<rect x="287.8" y="-114.1" fill="#81D199" width="50.9" height="135.6"/>
								<rect x="312.7" y="-114.3" fill="#64B579" width="25.9" height="135.6"/>
							</g>
						</g>
						<g>
							<path fill="#E8CBB8" d="M335.8,95.1v-6c2.4-0.3,5.8-1.9,6.9-4.5c2-5.2,3-10.7,2.1-16.3c-0.9-5.6-4.5-12.2-10.3-16.8
								c-1.9-1.5-4.2-2.8-8.4-3.6V34.2h-26.7v13.4c-6.6,2.3-12.7,9.1-12.7,17.1v11.7v6.9l7.3,10.7c0,3.5-3.7,0,0,0
								c2.1,0,4.2-1.3,5.3-1.3c1.3,0,3.4,4.5,6.7,4.5c2.5,0,3.8-2.3,5.9-2.3c2.1,0,3.4,3.8,6.5,3.8c2.3,0,4.2-2,5.5-2
								c1.5,0,2.5,4.9,6,4.9C333.4,101.4,335.8,98.6,335.8,95.1z"/>
						</g>
						<g>
							<rect x="291" y="21.6" fill="#64B579" width="44.5" height="18.3"/>
							<ellipse fill="#FFFFFF" cx="296.9" cy="34.8" rx="3" ry="2.8"/>
							<rect x="313.2" y="21.6" fill="#4D935D" width="22.2" height="18.2"/>
						</g>
					</g>
				</g>
			</g>
		</g>
	</g>
	<g>
		<g>
			<g>
				<g>
					<defs>
						<polyline id="SVGID_13_" points="559.5,17 559.5,480 71,480 71,17 						"/>
					</defs>
					<clipPath id="SVGID_14_">
						<use xlink:href="#SVGID_13_"  overflow="visible"/>
					</clipPath>
					<g clip-path="url(#SVGID_14_)">
						<g>
							<g>
								<g>
									<g>
										<path fill="#FFFFFF" d="M154.4,168.2c-0.1-0.3-0.2-0.4-0.6-0.5l-6.9-2.2v-6.9c0-0.3-0.1-0.4-0.3-0.5
											c-0.2-0.1-0.6-0.1-0.7-0.1l-6.9,2.1l-4.3-5.5c-0.1-0.1-0.3-0.4-0.6-0.4c-0.3,0-0.6,0.1-0.6,0.4L129,160l-6.9-2.1
											c-0.2-0.1-0.5-0.1-0.7,0.1c-0.2,0.1-0.2,0.4-0.2,0.5v6.9l-6.9,2.2c-0.2,0.1-0.5,0.3-0.6,0.5c-0.1,0.2-0.1,0.5,0.1,0.7
											l4.3,5.6l-4.3,5.5c-0.1,0.1-0.2,0.4-0.1,0.7c0.1,0.3,0.2,0.4,0.6,0.5l6.9,2.2v6.9c0,0.3,0.1,0.4,0.2,0.5
											c0.2,0.1,0.6,0.1,0.7,0.1l6.9-2.1l4.3,5.5c0.2,0.1,0.3,0.4,0.6,0.4c0.3,0,0.6-0.1,0.6-0.4l4.3-5.5l6.9,2.1
											c0.2,0.1,0.5,0.1,0.7-0.1c0.2-0.1,0.3-0.4,0.3-0.5v-7l6.9-2.2c0.2-0.1,0.5-0.3,0.6-0.5c0.1-0.3,0.1-0.5-0.1-0.7l-4.3-5.6
											l4.3-5.5C154.4,168.6,154.5,168.5,154.4,168.2z M146.7,179.9c-0.8,1.6-1.7,2.9-3,4c-1.4,1.1-2.8,2-4.5,2.6
											c-1.6,0.5-3.5,0.9-5.3,0.9c-1.8-0.1-3.6-0.5-5.3-1.2c-1.6-0.7-3.1-1.6-4.3-2.8c-1.3-1.2-2.2-2.6-2.8-4.3
											c-0.7-1.6-1-3.3-1-5.1c0.1-1.7,0.6-3.5,1.3-5.1c0.8-1.6,1.7-2.9,3-4c1.4-1.1,2.7-2,4.5-2.7c1.7-0.7,3.5-0.9,5.3-0.8
											c1.8,0.1,3.6,0.5,5.3,1.2c1.6,0.7,3.1,1.6,4.3,2.8c1.3,1.2,2.1,2.6,2.8,4.3c0.7,1.6,1,3.3,1,5.1
											C147.9,176.7,147.4,178.4,146.7,179.9z"/>
									</g>
								</g>
							</g>
						</g>
					</g>
				</g>
			</g>
		</g>
	</g>
	<g>
		<g>
			<g>
				<g>
					<defs>
						<polyline id="SVGID_15_" points="559.5,17 559.5,480 71,480 71,17 						"/>
					</defs>
					<clipPath id="SVGID_16_">
						<use xlink:href="#SVGID_15_"  overflow="visible"/>
					</clipPath>
					<g clip-path="url(#SVGID_16_)">
						<path fill="#FFFFFF" d="M210.8,319.2c3.4-11.4-3.7-23.1-15.6-26.3c-12-3.2-24.4,3.5-27.7,14.8c-3.3,11.4,3.7,23.1,15.6,26.3
							C195,337.4,207.4,330.7,210.8,319.2z"/>
						<g>
							<g>
								<g>
									<g>
										<g>
											<defs>
												<path id="SVGID_17_" d="M207.9,318.5c2.9-9.8-3.1-20-13.5-22.7s-21.2,3.1-24,12.8c-2.9,9.8,3.1,20,13.5,22.7
													C194.2,334.1,204.9,328.3,207.9,318.5z"/>
											</defs>
											<clipPath id="SVGID_18_">
												<use xlink:href="#SVGID_17_"  overflow="visible"/>
											</clipPath>
											<g clip-path="url(#SVGID_18_)">
												<polygon fill="#ECBB48" points="152.7,324.2 214.5,340.7 218,328.8 156.2,312.4 												"/>
												<polygon fill="#2F2218" points="163.8,286.5 160.2,298.3 222.1,314.7 225.5,302.9 												"/>
												<polygon fill="#A22330" points="156.2,312.4 218,328.8 222.1,314.7 160.2,298.3 												"/>
											</g>
										</g>
									</g>
									<g>
										<g>
											<g>
												<g>
													<defs>
														<polyline id="SVGID_19_" points="559.5,17 559.5,480 71,480 71,17 														"/>
													</defs>
													<clipPath id="SVGID_20_">
														<use xlink:href="#SVGID_19_"  overflow="visible"/>
													</clipPath>
													<g clip-path="url(#SVGID_20_)">
														<path fill="#FFFFFF" d="M522.5,336.3c4.4,9.6-1.4,21.2-12.7,25.8s-24.1,0.5-28.4-9.1c-4.3-9.6,1.4-21.2,12.7-25.8
															C505.5,322.7,518.2,326.7,522.5,336.3z"/>
														<g>
															<path fill="#3F4262" d="M498.1,328.1c0.6-0.1,1.1-0.3,1.7-0.4C499.2,327.9,498.7,328,498.1,328.1z"/>
															<path fill="#3F4262" d="M490.5,331.5c0.6-0.3,1-0.7,1.5-0.9C491.5,330.8,491,331.1,490.5,331.5z"/>
															<path fill="#3F4262" d="M495.2,341.7l-4.6-10.2c-3.5,2.5-6,5.7-7.3,9.4L495.2,341.7z"/>
															<path fill="#3F4262" d="M482.4,344.9c0,0.4-0.1,0.7-0.1,0.9C482.3,345.5,482.3,345.3,482.4,344.9z"/>
															<path fill="#3F4262" d="M490.2,346.4l-7.9-0.5c0,1.2,0.1,2.5,0.3,3.6L490.2,346.4z"/>
															<path fill="#3F4262" d="M495.3,344.2l-12.8-0.8c-0.1,0.5-0.1,0.9-0.2,1.5l10,0.7L495.3,344.2z"/>
															<path fill="#3F4262" d="M504.4,338l7.7-8.8c-3.7-1.6-7.9-2.2-12.2-1.5L504.4,338z"/>
															<path fill="#3F4262" d="M516.4,332l-4.9,5.6l7.3-3.1C518.2,333.8,517.4,332.8,516.4,332z"/>
															<path fill="#3F4262" d="M514.2,330.4c0.8,0.5,1.6,1,2.2,1.6c-1-0.9-2.2-1.6-3.5-2.4l-8.1,9.4l0.6,1.2l0.6-0.3
																L514.2,330.4z"/>
															<path fill="#3F4262" d="M511.9,329.2c0.2,0.1,0.6,0.3,0.9,0.4C512.6,329.5,512.3,329.3,511.9,329.2z"/>
															<path fill="#3F4262" d="M518.8,334.7c0.2,0.3,0.3,0.5,0.6,0.8C519.2,335.3,519,335,518.8,334.7z"/>
															<path fill="#3F4262" d="M521.2,340l-7.7,3.1l8.1,0.5c0.1-1.5-0.2-3.1-0.6-4.6C521.1,339.3,521.1,339.5,521.2,340z"/>
															<path fill="#3F4262" d="M483.3,341c-0.2,0.8-0.6,1.6-0.7,2.5C482.6,342.6,483,341.7,483.3,341z"/>
															<path fill="#3F4262" d="M513.4,358c-0.6,0.3-1,0.7-1.5,0.9C512.5,358.5,512.9,358.2,513.4,358z"/>
															<path fill="#3F4262" d="M505.8,345.1l15.1-6.3c-0.2-0.5-0.5-1.2-0.7-1.7c-0.2-0.5-0.6-1.1-0.9-1.6l-15.1,6.2
																l-6.1-13.6c-1,0.3-2.1,0.5-3.1,1c-1,0.4-2,0.8-3,1.5l6.1,13.6l-15.1,6.2c-0.1-0.3-0.2-0.7-0.2-0.9
																c0.2,0.8,0.6,1.9,0.9,2.7c0.9,1.9,2.2,3.6,3.8,5.1l4.8-5.5l-7.1,2.8c-0.2-0.3-0.3-0.5-0.6-0.8l15.1-6.3l6.1,13.6
																c1-0.3,2.1-0.5,3.1-1c1-0.5,2-0.8,3-1.5L505.8,345.1z"/>
															<path fill="#3F4262" d="M508.9,347.8l4.6,10c3.5-2.5,6-5.6,7.3-9.2L508.9,347.8z"/>
															<path fill="#3F4262" d="M508.3,345.1l12.9,0.9c-0.2,0.8-0.3,1.6-0.7,2.6c0.6-1.6,0.9-3.3,0.9-5c0,0.4,0,0.7-0.1,1
																L511,344L508.3,345.1z"/>
															<path fill="#3F4262" d="M489.7,358.9c0.7,0.5,1.5,0.8,2.2,1.3c-0.2-0.1-0.7-0.3-1-0.5l8.1-9.4l-0.6-1.1l-0.8,0.4
																L489.7,358.9z"/>
															<path fill="#3F4262" d="M505.9,361.3c-0.6,0.1-1.1,0.3-1.7,0.4C504.8,361.6,505.2,361.4,505.9,361.3z"/>
															<path fill="#3F4262" d="M489.7,358.9c-0.7-0.5-1.5-1-2.2-1.6C488.2,358,488.8,358.5,489.7,358.9z"/>
															<path fill="#3F4262" d="M499.5,351.4l-7.7,8.8c3.7,1.6,8.1,2.3,12.2,1.5L499.5,351.4z"/>
														</g>
														<g>
															<path fill="#C9443E" d="M504.9,339l0.6,1.2l0.6-0.3l8.2-9.6c-0.5-0.3-0.9-0.5-1.4-0.7L504.9,339z"/>
															<path fill="#C9443E" d="M521.3,346.1c0.1-0.5,0.2-0.9,0.2-1.5l-10.3-0.7l-3,1.3L521.3,346.1z"/>
															<path fill="#C9443E" d="M482.6,343.4c-0.1,0.5-0.1,0.9-0.2,1.5l10,0.7l3-1.3L482.6,343.4z"/>
															<path fill="#C9443E" d="M489.7,358.9c0.5,0.3,0.9,0.5,1.4,0.7l8.1-9.4l-0.6-1.1l-0.8,0.4L489.7,358.9z"/>
														</g>
														<path fill="#C9443E" d="M498.2,344.2l-15.1,6.2c0.2,0.5,0.5,1.2,0.7,1.7c0.2,0.5,0.6,1.1,0.9,1.6l15.1-6.3l6.1,13.6
															c1-0.3,2.1-0.5,3.1-1c1-0.5,2-0.8,3-1.5l-6.1-13.6l15.1-6.3c-0.2-0.5-0.5-1.2-0.7-1.7c-0.2-0.5-0.6-1.1-0.9-1.6
															l-15.1,6.2l-6.1-13.6c-1,0.3-2.1,0.5-3.1,1c-1,0.5-2,0.8-3,1.5L498.2,344.2z"/>
													</g>
												</g>
												<g>
													<g>
														<g>
															<g>
																<defs>
																	<polyline id="SVGID_21_" points="559.5,17 559.5,480 71,480 71,17 																	"/>
																</defs>
																<clipPath id="SVGID_22_">
																	<use xlink:href="#SVGID_21_"  overflow="visible"/>
																</clipPath>
																<g clip-path="url(#SVGID_22_)">
																	<g>
																		<g>
																			<g>
																				<rect x="158.2" y="96.9" fill="#7A5635" width="30.4" height="355.8"/>
																				<polygon fill="#523C26" points="158.1,98.7 158.1,220.5 172.6,236.4 187.9,220.5 187.9,98.7 
																																									"/>
																				<rect x="153.4" y="184.5" fill="#CD7A23" width="38.3" height="15.4"/>
																			</g>
																			<g>
																				<rect x="449.4" y="96.9" fill="#7A5635" width="29.8" height="355.8"/>
																				<polygon fill="#523C26" points="449.3,98.7 449.3,220.5 463.6,236.4 479,220.5 479,98.7 																				
																					"/>
																				<rect x="446.4" y="184.5" fill="#CD7A23" width="35.8" height="15.4"/>
																			</g>
																		</g>
																	</g>
																</g>
															</g>
															<g>
																<g>
																	<g>
																		<g>
																			<defs>
																				<polyline id="SVGID_23_" points="559.5,17 559.5,480 71,480 71,17 																				"/>
																			</defs>
																			<clipPath id="SVGID_24_">
																				<use xlink:href="#SVGID_23_"  overflow="visible"/>
																			</clipPath>
																			<g clip-path="url(#SVGID_24_)">
																				<path fill="#FFFFFF" d="M428.9,119.9c-0.2-0.1-0.5-0.1-0.5-0.1S428.7,119.9,428.9,119.9z"/>
																				<path fill="#FFFFFF" d="M443.2,131.6c-2.5-4.9-6.9-4.5-6.9-4.5s-0.2-0.7,0.3-0.7c0.7-0.1,0.9,0.4,0.9,0.4
																					s0.2-0.5,1-0.5c0.8,0,0.9,0.8,0.9,0.8s0.3-0.5,0.8-0.5c0.6-0.1,1,0.5,1,0.5s0.1-0.7,0.9-0.8
																					c0.7-0.1,0.9,0.7,0.9,0.7s0.2-0.7,0.9-0.7c0.7,0,1.1,0.5,1.1,0.5s-0.5-2.1-4.5-2.8c-4.1-0.7-6.7,2.6-6.7,2.6
																					s0.6-2.6-0.6-4.5c-0.9-1.5-3.4-2-4.4-2.1c0.2,0.1,0.5,0.1,0.6,0.4c0.2,0.5-0.3,0.9-0.3,0.9s1-0.5,1.5,0.1
																					c0.6,0.8-0.2,1.2-0.2,1.2s0.7-0.3,1,0.4c0.3,0.7-0.1,1.1-0.1,1.1s0.6-0.1,0.8,0.3c0.2,0.5-0.2,0.7-0.2,0.7
																					s-1.6-2.5-4.4-3.3c-4.7-1.3-5.7-0.5-6.9,1c-1.1,1.5,0.6-0.5,1.4-0.3c0.7,0.3,0.6,1.3,0.6,1.3s1-1.1,1.7-0.9
																					c0.7,0.3,0.7,1.3,0.7,1.3s0.3-1.1,1.4-0.7c1,0.4,0.5,1.2,0.5,1.2s0.7-0.5,1.1-0.5c0.4,0.1,0.6,0.9,0.6,0.9
																					s0.5-0.7,1.1-0.4c0.3,0.1,0.9,0.7,1.4,1.3c-0.9-0.4-2-0.7-3.7-0.5c-3.1,0.3-3.6,3.1-3.6,3.1s0.6-1.1,1.4-1
																					c0.8,0.1,0.9,0.7,0.9,0.7s0.2-0.9,1.1-1c1-0.1,1.4,0.7,1.4,0.7s0.5-0.7,1.1-0.7c0.7,0.1,0.9,0.7,0.9,0.7
																					s0.3-0.5,0.9-0.7c0.3-0.1,0.7,0.1,1,0.1l0.3,0.3c-1.9,0.9-7.1,3.6-12.1,11.5c-3.9,6-6.1,10.6-7.3,13.3
																					c-3.8-1.6-7.6-2.8-11.4-3.6l1.9-11.6c0.6-0.5,1.6-0.7,2.3-0.5c1,0.3,1.6,1.2,1.6,2.1c0-0.1,0.1-0.1,0.1-0.1
																					c0.5-1.1,1.7-1.7,3-1.3c0.8,0.3,1.4,0.9,1.6,1.6c0.6-0.7,1.6-1.2,2.6-0.9c0.7,0.3,1.3,0.7,1.5,1.3
																					c-0.3-3.3-3.3-7.1-6.8-8.5c-3.1-1.3-8.8-3.1-13.9-0.1c-3.9,2.2-5.1,4.7-5.5,5.8c0.6-1,1.7-1.5,2.8-1.2
																					c0.9,0.3,1.4,0.9,1.6,1.6c0.5-1.1,1.7-1.6,2.9-1.3c0.7,0.3,1.4,0.8,1.6,1.5c0.6-0.7,1.6-1.2,2.6-0.8
																					c0.6,0.1,0.9,0.5,1.3,0.9l-1.9,11.4c-1.9-0.4-3.8-0.7-5.7-0.7c-7.6-0.5-13.5,2.3-12.2,3.1
																					c5,3.6,48.9,15.8,49.3,14.6c0.4-1.2-6.1-6.7-13.6-10.6c-0.7-0.4-1.4-0.7-2.1-1.1c1.5-3.1,4.9-9.8,8.1-14.2
																					c2.9-4,6-7.6,8.1-9.5c0.2,0.1,0.6,0.4,0.3,0.7c-0.2,0.7-1.1,0.7-1.1,0.7s0.6,0.1,0.5,0.9c-0.2,0.7-1,0.9-1,0.9
																					s0.2,0.1,0.3,0.9c0.1,0.4-1,1.3-1,1.3s2.1,0.5,3.4-4c0.3-1.3,0.2-2.2,0-2.8c0.1,0,0.7,0.1,0.9,0.5
																					c0.2,0.4-0.1,1-0.1,1s0.7-0.4,1,0.5c0.3,0.9-0.7,1-0.7,1s1,0,1.1,0.8c0.1,0.8-0.8,1-0.8,1s0.8,0.1,0.9,0.7
																					c0.1,0.5-1,0.7-1,0.7s1,0.1,0.9,1.3c-0.1,1.1-1,0.7-1,0.7s0.9,0.4,0.8,1.3c-0.1,0.7-0.9,1-0.9,1
																					s2.6,0.7,3.4-3.1c0.8-3.8-0.7-5.5-1.6-6.2c-0.9-0.7-1.8-1.5-1.8-1.5s0.1-0.5,1-0.4c0.9,0.3,0.5,0.7,0.5,0.7
																					s0.6-0.7,1.4-0.1c0.7,0.5,0.6,1.3,0.6,1.3s0.5-0.9,1.4-0.1c1,0.8,0.1,1.5,0.1,1.5s0.9-0.5,1.4,0.1
																					c0.6,0.7-0.5,1-0.5,1s1-0.4,1.4,0.4c0.3,0.7-0.6,1.3-0.6,1.3s0.8-0.4,1.1,0.3c0.3,0.7-0.6,1.2-0.6,1.2
																					s0.9-0.4,1.4,0.4c0.5,0.7-0.2,1.2-0.2,1.2S445.1,134.8,443.2,131.6z M432.4,129.6c0.2-0.1,0.3-0.4,0.6-0.5
																					C432.9,129.5,432.7,129.5,432.4,129.6z"/>
																			</g>
																		</g>
																	</g>
																	<g>
																		<g>
																			<g>
																				<defs>
																					<polyline id="SVGID_25_" points="559.5,17 559.5,480 71,480 71,17 																					"/>
																				</defs>
																				<clipPath id="SVGID_26_">
																					<use xlink:href="#SVGID_25_"  overflow="visible"/>
																				</clipPath>
																				<g clip-path="url(#SVGID_26_)">
																					<g>
																						<path fill="#D4A157" d="M277,296.1c-1.1,6-0.6,11.9,1.6,17.7c0.6,1.3,2.4,1.5,3,0c3-9.1,4-18.7,2.8-28.2
																							c-0.2-1.3-1.9-2-2.8-0.7c-4.6,7.2-7.9,15.1-10,23.4c1,0.3,1.9,0.5,3,0.7c0.2-1.2,0.5-2.4,0.7-3.5
																							c0.3-1.9-2.5-2.6-3-0.7c-0.2,1.2-0.5,2.4-0.7,3.5c-0.3,1.9,2.4,2.6,3,0.7c2-8,5.3-15.6,9.7-22.6
																							c-0.9-0.3-1.9-0.5-2.8-0.7c1.1,9.2,0.3,18.4-2.7,27.3c1,0,1.9,0,3,0c-2-5.2-2.6-10.6-1.6-16.2
																							C280.4,295.2,277.3,294.4,277,296.1L277,296.1z"/>
																					</g>
																				</g>
																			</g>
																		</g>
																	</g>
																</g>
															</g>
														</g>
													</g>
												</g>
											</g>
										</g>
									</g>
								</g>
							</g>
						</g>
					</g>
				</g>
			</g>
		</g>
	</g>
</g>
<g>
	<path fill="#CD7A23" stroke="#DB6220" stroke-width="1.7631" stroke-miterlimit="10" d="M117.2,78.2L117.2,78.2
		c0,0.3-0.1,0.3-0.2,0.3c-0.1,0-0.2-0.1-0.2-0.2c0-5.5-1.6-10.3-4.9-14.7c-0.4-0.5-0.8-1-1.2-1.4c0,0,0,0,0,0h-3.2
		c-0.1,0-0.2-0.1-0.2-0.2v-4c0-0.1,0-0.2,0.1-0.2c0.1,0,0.1,0,0.2,0.1l2.2,2.7h0l0,0.1l1,1.1c1.6-0.3,2.9-1.2,3.9-2.6
		c1-1.5,1.6-3.2,1.6-5.2c0-2.2-0.6-4-1.9-5.6c-1.2-1.5-2.7-2.3-4.5-2.4h-3.2h0h-0.6V78h1.3c0.1,0,0.2,0.1,0.2,0.2
		c0,0.2-0.1,0.2-0.2,0.2h-4.8c-0.1,0-0.2-0.1-0.2-0.2V45.7c0-0.2,0.1-0.2,0.2-0.2h4.8h0h2.5c1.9,0,3.5,0.9,4.8,2.5
		c1.3,1.6,2,3.6,2,5.9c0,2-0.5,3.8-1.6,5.4c-1,1.5-2.4,2.5-4,2.9l1,1.2C115.5,67.7,117.2,72.7,117.2,78.2z M105.8,45.9h-2.9V78h2.9
		V45.9z M107.7,61.7h2.7c-0.2-0.3-0.4-0.5-0.7-0.9l-2-2.4V61.7z"/>
	<path fill="#CD7A23" stroke="#DB6220" stroke-width="1.7631" stroke-miterlimit="10" d="M129.4,45.9v15.9h4.3
		c0.1,0,0.2,0.1,0.2,0.2v4c0,0.1,0,0.2-0.1,0.2c0,0,0,0-0.1,0c-0.1,0-0.1,0-0.1-0.1l-3.3-3.9h-0.8V78h6.4l3.2-4
		c0-0.1,0.1-0.1,0.2-0.1c0.1,0,0.1,0.1,0.1,0.2v4c0,0.2-0.1,0.2-0.2,0.2h-3.3H126c-0.1,0-0.2-0.1-0.2-0.2V62.2h-1
		c-0.1,0-0.2-0.1-0.2-0.2c0-0.2,0.1-0.2,0.2-0.2h1V45.7c0-0.2,0.1-0.2,0.2-0.2h13.2c0.1,0,0.2,0.1,0.2,0.2v4.1c0,0.1,0,0.2-0.1,0.2
		c-0.1,0-0.1,0-0.2-0.1l-3.3-4H129.4z M129.1,45.9h-2.9v15.9h2.9V45.9z M129.1,62.2h-2.9V78h2.9V62.2z M130.8,62.2l2.7,3.2v-3.2
		H130.8z M136.3,45.9l2.7,3.3v-3.3H136.3z M136.4,78h2.6v-3.3L136.4,78z"/>
	<path fill="#CD7A23" stroke="#DB6220" stroke-width="1.7631" stroke-miterlimit="10" d="M162.2,78.5L162.2,78.5
		c-0.1,0-0.2-0.1-0.2-0.2l-6.2-31.9l-3,15.4h4.4c0.1,0,0.2,0.1,0.2,0.2v4c0,0.1,0,0.2-0.1,0.2c0,0,0,0,0,0l0,0c-0.1,0-0.1,0-0.1-0.1
		l-3.2-3.9h-1.1L149.7,78h1.4c0.1,0,0.2,0.1,0.2,0.2c0,0.2-0.1,0.2-0.2,0.2h-4.9c-0.1,0-0.1,0-0.1-0.1c0-0.1-0.1-0.2-0.1-0.2l3.1-16
		H148c-0.1,0-0.2-0.1-0.2-0.2c0-0.2,0.1-0.2,0.2-0.2h1.2l3.1-16.2c0-0.1,0.1-0.2,0.2-0.2h3.2h0h0c0.1,0,0.2,0,0.2,0.2l6.3,32.6
		C162.4,78.3,162.4,78.4,162.2,78.5z M152.4,62.2h-2.9L146.5,78h2.9L152.4,62.2z M152.5,61.8l3.1-15.9h-2.9l-3.1,15.9H152.5z
		 M154.4,62.2l2.7,3.2v-3.2H154.4z"/>
	<path fill="#CD7A23" stroke="#DB6220" stroke-width="1.7631" stroke-miterlimit="10" d="M180.8,74.1c-1.9,2.9-4.7,4.3-8.2,4.4
		c0,0,0,0-0.1,0c0,0,0,0-0.1,0h-1.4h0h-1.8c-0.1,0-0.2-0.1-0.2-0.2V45.6c0-0.2,0.1-0.2,0.2-0.2h4.8h0c0.9,0,1.8,0.2,2.7,0.6
		c0.9,0.4,1.7,1,2.6,1.8c0.9,0.8,1.6,1.9,2.2,3.1c0.6,1.2,1.1,2.8,1.5,4.7c0.4,1.9,0.6,4,0.6,6.4C183.7,67.2,182.7,71.2,180.8,74.1z
		 M169.5,78h1.7c0.1,0,0.2,0,0.5,0c0.3,0,0.5,0,0.6,0V45.9h-0.2h0h-2.6V78z M175.3,77.6c0.9-0.2,1.8-0.7,2.8-1.4
		c1-0.7,1.9-1.6,2.6-2.7c0.7-1.1,1.3-2.7,1.8-4.6c0.5-2,0.7-4.3,0.7-6.9c0-2.3-0.2-4.4-0.6-6.2c-0.4-1.9-0.9-3.4-1.5-4.6
		c-0.6-1.2-1.3-2.2-2.2-3c-0.8-0.8-1.7-1.4-2.5-1.8c-0.8-0.4-1.7-0.5-2.6-0.5h-1.4V78C173.6,78,174.5,77.8,175.3,77.6z"/>
	<path fill="#CD7A23" stroke="#DB6220" stroke-width="1.7631" stroke-miterlimit="10" d="M207.3,45.7c0,0.1-0.1,0.2-0.2,0.2h-1.7
		l-6.3,32.4c0,0.1-0.1,0.2-0.2,0.2h-3.2h-0.1v0h-0.1c0,0,0,0,0,0v0l0,0l0,0v-0.1v0v0l1.2-6.4L191,45.8c0-0.1,0-0.2,0.1-0.3
		c0,0,0,0,0.1,0c0,0,0,0,0.1,0h3.3c0.1,0,0.1,0,0.2,0.1c0,0.1,0,0.2,0,0.2l-2.4,4.2l4.6,20.9l4.9-25.2c0-0.1,0.1-0.2,0.1-0.2
		c0,0,0,0,0.1,0h5.1C207.2,45.5,207.3,45.6,207.3,45.7z M194.2,45.9h-2.7l0.8,3.5L194.2,45.9z M205,45.9h-2.9l-5,25.9
		c0,0,0,0.1,0,0.2l-1.2,6h2.9L205,45.9z"/>
	<path fill="#CD7A23" stroke="#DB6220" stroke-width="1.7631" stroke-miterlimit="10" d="M240.8,45.7v4.1c0,0.1,0,0.2-0.1,0.2
		c-0.1,0-0.2,0-0.2-0.1l-3.3-4h-1.6v32.4c0,0.2-0.1,0.2-0.2,0.2h-3.3c-0.1,0-0.2-0.1-0.2-0.2V45.9h-4.7c-0.1,0-0.2-0.1-0.2-0.2
		s0.1-0.2,0.2-0.2h4.9h5.6h2.9C240.7,45.4,240.8,45.5,240.8,45.7z M235.3,45.9h-2.9V78h2.9V45.9z M240.4,45.9h-2.7l2.7,3.3V45.9z"/>
	<path fill="#CD7A23" stroke="#DB6220" stroke-width="1.7631" stroke-miterlimit="10" d="M264.2,62c0,2.6-0.2,5-0.5,7
		c-0.3,2-0.8,3.6-1.3,4.8c-0.5,1.2-1.1,2.2-1.9,2.9c-0.7,0.7-1.5,1.2-2.2,1.5c-0.7,0.3-1.5,0.4-2.3,0.4c-0.8,0-1.6-0.1-2.3-0.4
		c-0.7-0.3-1.4-0.8-2.2-1.5c-0.7-0.7-1.4-1.7-1.9-2.9c-0.5-1.2-0.9-2.8-1.3-4.8s-0.5-4.3-0.5-7c0-8.7,1.7-14,5.2-15.8
		c0.9-0.5,1.9-0.7,2.9-0.7c1.1,0,2,0.3,3,0.8C262.5,48,264.2,53.3,264.2,62z M251.7,76V47.9c-2.2,2.5-3.3,7.2-3.3,14
		C248.4,68.8,249.5,73.5,251.7,76z M261.9,73.9c1.3-2.7,2-6.7,2-12c0-8.5-1.6-13.6-4.9-15.4c-0.8-0.5-1.8-0.7-2.8-0.7
		c-1,0-1.9,0.2-2.7,0.7c-0.5,0.3-0.9,0.6-1.3,1v28.8l0,0l0,0c1.1,1.1,2.5,1.7,4.1,1.7C258.7,78,260.6,76.7,261.9,73.9z"/>
</g>
<g>
	<path fill="#CD7A23" stroke="#DB6220" stroke-width="1.7631" stroke-miterlimit="10" d="M378.3,45.7v4.1c0,0.1,0,0.2-0.1,0.2
		c-0.1,0-0.1,0-0.2-0.1l-3.3-4h-6.3v15.9h4.3c0.1,0,0.2,0.1,0.2,0.2v4c0,0.1,0,0.2-0.1,0.2c0,0,0,0-0.1,0c-0.1,0-0.1,0-0.1-0.1
		l-3.3-3.9h-0.9v16.1c0,0.2-0.1,0.2-0.2,0.2h-3.2c-0.1,0-0.2-0.1-0.2-0.2V62.2h-0.9c-0.1,0-0.2-0.1-0.2-0.2c0-0.2,0.1-0.2,0.2-0.2
		h0.9V45.7c0-0.2,0.1-0.2,0.2-0.2h13.2C378.2,45.4,378.3,45.5,378.3,45.7z M368,45.9h-2.9v15.9h2.9V45.9z M368,62.2h-2.9V78h2.9
		V62.2z M369.8,62.2l2.7,3.2v-3.2H369.8z M377.9,45.9h-2.7l2.7,3.3V45.9z"/>
	<path fill="#CD7A23" stroke="#DB6220" stroke-width="1.7631" stroke-miterlimit="10" d="M399.9,74.3v4c0,0.2-0.1,0.2-0.2,0.2h-3.3
		h-9.9c-0.1,0-0.2-0.1-0.2-0.2V45.7c0-0.2,0.1-0.2,0.2-0.2h4.7c0.1,0,0.2,0.1,0.2,0.2s-0.1,0.2-0.2,0.2H390V78h6.4l3.2-4
		c0.1-0.1,0.1-0.1,0.2-0.1C399.9,74.1,399.9,74.1,399.9,74.3z M386.7,78h2.9V45.9h-2.9V78z M399.6,74.8l-2.7,3.3h2.7V74.8z"/>
	<path fill="#CD7A23" stroke="#DB6220" stroke-width="1.7631" stroke-miterlimit="10" d="M424,45.7c0,0.1-0.1,0.2-0.2,0.2h-1.7
		l-6.3,32.4c0,0.1-0.1,0.2-0.2,0.2h-3.2h-0.1v0h-0.1c0,0,0,0,0,0v0l0,0l0,0v-0.1v0v0l1.2-6.4l-5.7-26.1c0-0.1,0-0.2,0.1-0.3
		c0,0,0,0,0.1,0c0,0,0,0,0.1,0h3.3c0.1,0,0.1,0,0.2,0.1c0,0.1,0,0.2,0,0.2l-2.4,4.2l4.6,20.9l4.9-25.2c0-0.1,0.1-0.2,0.1-0.2
		c0,0,0,0,0.1,0h5.1C424,45.5,424,45.6,424,45.7z M410.9,45.9h-2.7l0.8,3.5L410.9,45.9z M421.7,45.9h-2.9l-5,25.9c0,0,0,0.1,0,0.2
		l-1.2,6h2.9L421.7,45.9z"/>
	<path fill="#CD7A23" stroke="#DB6220" stroke-width="1.7631" stroke-miterlimit="10" d="M458.7,78.5L458.7,78.5
		c-0.1,0-0.2-0.1-0.2-0.2l-6.2-31.9l-3,15.4h4.4c0.1,0,0.2,0.1,0.2,0.2v4c0,0.1,0,0.2-0.1,0.2c0,0,0,0,0,0l0,0c-0.1,0-0.1,0-0.1-0.1
		l-3.2-3.9h-1.1L446.2,78h1.4c0.1,0,0.2,0.1,0.2,0.2c0,0.2-0.1,0.2-0.2,0.2h-4.9c-0.1,0-0.1,0-0.1-0.1c0-0.1-0.1-0.2-0.1-0.2l3.1-16
		h-1.1c-0.1,0-0.2-0.1-0.2-0.2c0-0.2,0.1-0.2,0.2-0.2h1.2l3.1-16.2c0-0.1,0.1-0.2,0.2-0.2h3.2h0h0c0.1,0,0.2,0,0.2,0.2l6.3,32.6
		C458.9,78.3,458.8,78.4,458.7,78.5z M448.9,62.2H446L442.9,78h2.9L448.9,62.2z M449,61.8l3.1-15.9h-2.9l-3.1,15.9H449z M450.9,62.2
		l2.7,3.2v-3.2H450.9z"/>
	<path fill="#CD7A23" stroke="#DB6220" stroke-width="1.7631" stroke-miterlimit="10" d="M492.7,45.6L492.7,45.6L486.5,78
		c0,0.1-0.1,0.2-0.2,0.2h-0.1h-0.1H483c-0.1,0-0.2-0.1-0.2-0.2l-4.4-22.7L474,78c0,0.1-0.1,0.2-0.2,0.2h-0.1h-0.1h-3.2
		c-0.1,0-0.1-0.1-0.2-0.2l-6.2-32.3c0,0,0-0.1,0-0.2c0,0,0.1-0.1,0.1-0.1h4.8c0.1,0,0.2,0.1,0.2,0.2c0,0.2-0.1,0.2-0.2,0.2h-1.3
		l6.1,31.3l4.5-22.9l-1.7-8.6c0,0,0-0.1,0-0.2c0,0,0.1-0.1,0.1-0.1h4.8c0.1,0,0.2,0.1,0.2,0.2c0,0.2-0.1,0.2-0.2,0.2h-1.3l6.1,31.3
		l5.4-27.8l-2.4-3.8c-0.1-0.1-0.1-0.2,0-0.3c0-0.1,0.1-0.1,0.2-0.1h3.2c0.1,0,0.1,0,0.1,0.1C492.7,45.4,492.7,45.5,492.7,45.6
		L492.7,45.6z M470.6,77.7h2.9l-6.2-31.9h-2.9L470.6,77.7z M483.1,77.7h2.9l-6.2-31.9h-2.9l1.6,8.3c0,0,0,0.1,0,0.1L483.1,77.7z
		 M491.7,48.9l0.4-2.3l0.2-0.9h-2.6L491.7,48.9z"/>
	<path fill="#CD7A23" stroke="#DB6220" stroke-width="1.7631" stroke-miterlimit="10" d="M514.4,78.5L514.4,78.5
		c-0.1,0-0.2-0.1-0.2-0.2L508,46.4l-3,15.4h4.4c0.1,0,0.2,0.1,0.2,0.2v4c0,0.1,0,0.2-0.1,0.2c0,0,0,0,0,0l0,0c-0.1,0-0.1,0-0.1-0.1
		l-3.2-3.9H505L501.9,78h1.4c0.1,0,0.2,0.1,0.2,0.2c0,0.2-0.1,0.2-0.2,0.2h-4.9c-0.1,0-0.1,0-0.1-0.1c0-0.1-0.1-0.2-0.1-0.2l3.1-16
		h-1.1c-0.1,0-0.2-0.1-0.2-0.2c0-0.2,0.1-0.2,0.2-0.2h1.2l3.1-16.2c0-0.1,0.1-0.2,0.2-0.2h3.2h0h0c0.1,0,0.2,0,0.2,0.2l6.3,32.6
		C514.6,78.3,514.6,78.4,514.4,78.5z M504.6,62.2h-2.9L498.7,78h2.9L504.6,62.2z M504.7,61.8l3.1-15.9h-2.9l-3.1,15.9H504.7z
		 M506.6,62.2l2.7,3.2v-3.2H506.6z"/>
	<path fill="#CD7A23" stroke="#DB6220" stroke-width="1.7631" stroke-miterlimit="10" d="M537.3,45.7c0,0.1-0.1,0.2-0.2,0.2h-1.7
		l-6.3,32.4c0,0.1-0.1,0.2-0.2,0.2h-3.2h-0.1v0h-0.1c0,0,0,0,0,0v0l0,0l0,0v-0.1v0v0l1.2-6.4L521,45.8c0-0.1,0-0.2,0.1-0.3
		c0,0,0,0,0.1,0c0,0,0,0,0.1,0h3.3c0.1,0,0.1,0,0.2,0.1c0,0.1,0,0.2,0,0.2l-2.4,4.2l4.6,20.9l4.9-25.2c0-0.1,0.1-0.2,0.1-0.2
		c0,0,0,0,0.1,0h5.1C537.2,45.5,537.3,45.6,537.3,45.7z M524.2,45.9h-2.7l0.8,3.5L524.2,45.9z M535,45.9h-2.9l-5,25.9
		c0,0,0,0.1,0,0.2l-1.2,6h2.9L535,45.9z"/>
</g>
</svg>
